<svg width="25" height="24" viewBox="0 0 25 24" fill="none" xmlns="http://www.w3.org/2000/svg">
<g clip-path="url(#clip0_1_201)">
<path d="M8.81666 18.7811C7.64968 18.5965 6.60531 18.3246 5.74204 17.987V23.9859H2.68182V13.2313C2.68182 12.3916 2.98233 11.6705 3.58335 11.0682C4.18437 10.4658 4.90393 10.1647 5.74204 10.1647H11.8769V23.9859H8.81666V18.7811ZM7.10001 11.7536L6.17273 15.8401L7.30044 17.0548L8.42815 15.8401L7.50219 11.7599C7.73273 11.6032 8.00211 11.2635 8.00211 11.1616C8.00211 11.0009 7.81491 10.8706 7.58408 10.8706H7.02684C6.7963 10.8706 6.6091 11.0009 6.6091 11.1616C6.6091 11.2622 6.87164 11.5944 7.10001 11.7536Z" fill="#999"/>
<path d="M20.4801 9.75665C23.1602 7.9558 23.3784 3.99411 21.6613 0.450576C21.9439 -0.149989 22.3252 -0.149989 22.8053 0.450576C24.7308 3.06841 24.9954 7.55698 23.1532 11.3628C23.1441 11.3817 23.1349 11.4006 23.1259 11.4193C22.9833 11.1916 22.8107 10.9761 22.6085 10.7735C22.0091 10.1728 21.294 9.83105 20.4801 9.75665Z" fill="#999"/>
<path d="M20.238 10.1663C21.0327 10.1897 21.7185 10.4904 22.2951 11.0682C22.8961 11.6705 23.1966 12.3916 23.1966 13.2313V23.9859H20.1364V17.8928C20.3244 17.7961 20.5044 17.6808 20.6761 17.5471C21.6065 16.8858 22.0588 16.1242 22.0588 14.7717V13.2313C22.0588 12.2864 21.7143 11.4611 21.035 10.7777C20.7883 10.5296 20.5224 10.3256 20.238 10.1663Z" fill="#999"/>
<path d="M21.6225 14.7717V13.2313C21.6225 12.3963 21.322 11.6764 20.7208 11.0718C20.1198 10.4671 19.4004 10.1647 18.5623 10.1647H12.4273V23.9859H15.4875V18.8335C17.2505 18.5863 18.7576 18.1424 19.819 17.5735C20.0263 17.4782 20.2233 17.3575 20.4104 17.2108C21.0293 16.773 21.6225 16.188 21.6225 14.7717Z" fill="#999"/>
<path d="M4.43381 8.88241C4.34421 9.00848 4.2501 9.13328 4.15163 9.25709H2.6597C0.964573 7.84858 0.267264 6.5897 0.567918 5.48048C1.01214 3.841 3.54174 0.204012 4.70043 0.283635C3.73752 0.8842 3.11817 1.81159 3.11817 2.86265C3.11817 3.65973 3.66072 4.71065 4.30261 5.57549C4.38683 5.689 4.38479 5.7874 4.22203 7.54632C4.17388 8.06655 4.24995 8.51408 4.43381 8.88241Z" fill="#999"/>
<path d="M10.0763 8.75124C10.1927 8.92179 10.3172 9.09049 10.4497 9.25694H11.9416C13.6369 7.84856 14.334 6.58969 14.0334 5.48047C13.5825 3.81656 10.9835 0.0947267 9.84982 0.289691C9.83615 0.301127 9.82248 0.312421 9.8091 0.323574C10.74 0.924986 11.3324 1.83473 11.3324 2.86263C11.3324 3.65972 10.7899 4.71063 10.148 5.57548C10.0638 5.68899 10.0658 5.78739 10.2286 7.5463C10.2712 8.00626 10.2167 8.40946 10.0763 8.75124Z" fill="#999"/>
<path d="M7.04546 0C7.0584 0 7.3496 0 7.3624 0C9.31208 0.105459 10.8533 1.3464 10.8533 2.86249C10.8533 3.70588 10.0607 4.91082 9.7512 5.32786C9.54495 5.60584 9.59819 5.92955 9.7512 7.584C9.90422 9.23859 8.60459 9.59887 7.96182 9.59887C7.7595 9.59887 7.46059 9.20866 7.204 9.20866C6.91731 9.20866 6.67208 9.59887 6.44604 9.59887C5.80342 9.59887 4.50364 9.23845 4.65666 7.584C4.80968 5.92941 4.86291 5.60584 4.65666 5.32786C4.34713 4.91096 3.55455 3.70602 3.55455 2.86264C3.55455 1.3464 5.09579 0.1056 7.04546 0ZM7.18931 8.73459C7.42015 8.73459 7.8859 8.18979 7.8859 8.05567C7.8859 7.89501 7.6987 7.76471 7.46786 7.76471C7.3608 7.76471 7.01768 7.76471 6.91048 7.76471C6.67964 7.76471 6.49259 7.89501 6.49259 8.05567C6.49273 8.18979 6.95848 8.73459 7.18931 8.73459Z" fill="#999"/>
</g>
<defs>
<clipPath id="clip0_1_201">
<rect width="24" height="24" fill="white" transform="translate(0.5)"/>
</clipPath>
</defs>
</svg>
